<svg id="Grupo_56686" data-name="Grupo 56686" xmlns="http://www.w3.org/2000/svg" xmlns:xlink="http://www.w3.org/1999/xlink" width="74.537" height="118.678" viewBox="0 0 74.537 118.678">
  <defs>
    <clipPath id="clip-path">
      <rect id="Rectángulo_33948" data-name="Rectángulo 33948" width="74.537" height="118.678" fill="none"/>
    </clipPath>
  </defs>
  <path id="Trazado_101313" data-name="Trazado 101313" d="M55.4,317.413H13.173v10.673h44.52V317.413H55.4Z" transform="translate(-8.79 -211.801)" fill="#387db8"/>
  <path id="Trazado_101314" data-name="Trazado 101314" d="M25.586,301.684H61.761v-4.247H22.712v4.247h2.874Z" transform="translate(-15.155 -198.471)" fill="#fff"/>
  <g id="Grupo_56685" data-name="Grupo 56685">
    <g id="Grupo_56684" data-name="Grupo 56684" clip-path="url(#clip-path)">
      <path id="Trazado_101315" data-name="Trazado 101315" d="M29.628,63.759a7.352,7.352,0,0,1-6.022-1.365A6.988,6.988,0,0,1,18.1,68.473a7.136,7.136,0,0,1-1.436.146,7.016,7.016,0,0,1-6.335-4.079c.66,14.661,2.858,24.093,6.841,29.8.02.029.037.065.059.091.684,1.2,1.1,3.845,1.271,6.945H50.035a14.315,14.315,0,0,1,.448-2.963,12.871,12.871,0,0,1,3.54-5.71c2.331-2.487,5.518-5.885,9.485-19.3C65,68.337,72.3,62.563,78.173,60.358c.72-.273.939-1.216.838-2.036a3.624,3.624,0,0,0-3.375-3.135c-9.678-1.109-14.468,5.7-16.772,8.971-1.039,1.478-1.564,2.221-2.471,2.253a1.336,1.336,0,0,1-.666-.133c-1.332-.172-8.238-.8-13.121,3.392-3.6,3.1-5.366,8.138-5.249,15a1.194,1.194,0,0,1-1.179,1.213h-.019a1.193,1.193,0,0,1-1.2-1.177c-.126-7.606,1.923-13.283,6.1-16.863C45.976,63.636,52.367,63.6,55.069,63.8c.209-2.474.664-8.426.875-15l0-.078c.825-8.232,1.811-23.691,1.431-32.276-.133-3-.788-4.646-2-5.039a2.553,2.553,0,0,0-2.223.175c-1.405.846-2.561,3.3-3.168,6.715-.574,3.248-2.782,28.378-2.8,28.628a1.2,1.2,0,0,1-.655.966,1.364,1.364,0,0,1-1.284-.042c-1.2-.707-1.746-3.164-2.753-26.372-.116-2.765-.224-5.142-.321-6.928-.381-6.993-2.569-7.256-3.291-7.337A2.5,2.5,0,0,0,36.8,7.8c-.984.869-2.182,3.135-2.268,9.036-.195,12.4-.7,26.676-.824,29.98l1.7,8.109a7.461,7.461,0,0,1-5.781,8.838" transform="translate(-6.891 -4.799)" fill="#fabfa3"/>
      <path id="Trazado_101316" data-name="Trazado 101316" d="M40.521,107.52l.245,1.167.245,1.171L42.53,117.1a5.092,5.092,0,0,0,4.959,4.04,4.793,4.793,0,0,0,1.049-.113,5.067,5.067,0,0,0,3.923-6.008l-1.415-6.773-.25-1.184-.25-1.19-1.109-5.308a5.089,5.089,0,0,0-4.959-4.036,5.449,5.449,0,0,0-1.049.1,5.1,5.1,0,0,0-3.928,6.014Z" transform="translate(-26.287 -64.413)" fill="#fabfa3"/>
      <path id="Trazado_101317" data-name="Trazado 101317" d="M7.307,122.441l.733,3.5,2.057,9.833a4.61,4.61,0,0,0,4.487,3.657,4.223,4.223,0,0,0,.945-.1,4.591,4.591,0,0,0,3.554-5.431L16.931,123.6l-.272-1.271-.268-1.287-.1-.477a4.623,4.623,0,0,0-4.492-3.654,4.745,4.745,0,0,0-.945.1,4.584,4.584,0,0,0-3.6,5.145c.013.094.026.195.047.289" transform="translate(-4.813 -78.009)" fill="#fabfa3"/>
      <path id="Trazado_101318" data-name="Trazado 101318" d="M.833,48.18c-.1,22.209,2.156,35.058,7.444,42.683a17.818,17.818,0,0,1,.944,5.709H6.361a1.194,1.194,0,0,0-1.193,1.2v5.444H3.185a1.2,1.2,0,0,0-1.2,1.2v13.066a1.2,1.2,0,0,0,1.2,1.2H50.1a1.2,1.2,0,0,0,1.2-1.2V104.416a1.2,1.2,0,0,0-1.2-1.2H49V97.769a1.2,1.2,0,0,0-1.2-1.2H45.524a11.261,11.261,0,0,1,.355-2.26,10.638,10.638,0,0,1,3-4.776c2.492-2.659,5.909-6.306,10.031-20.257,1.243-4.192,8-9.519,13.22-11.487a4.121,4.121,0,0,0,2.365-4.562,6.021,6.021,0,0,0-5.481-5.22c-10.077-1.151-15.574,5.246-18.269,8.945.227-3.035.538-7.746.7-12.826.827-8.316,1.817-23.892,1.438-32.58-.122-2.623-.626-6.228-3.656-7.211a4.863,4.863,0,0,0-4.192.4c-2.6,1.56-3.769,5.4-4.293,8.349-.353,1.994-1.256,11.51-1.952,19.067-.341-5.132-.606-11.325-.793-15.575-.12-2.769-.224-5.155-.323-6.958-.12-2.224-.486-9-5.395-9.584A4.9,4.9,0,0,0,28.341,1.2c-2,1.741-3.007,5.278-3.091,10.8-.112,7.45-.342,15.585-.535,21.6a7.487,7.487,0,0,0-6.523-3.871,7.488,7.488,0,0,0-7.463,7.888A6.9,6.9,0,0,0,6.99,36.506a7.187,7.187,0,0,0-1.435.146,6.992,6.992,0,0,0-5.4,8.271ZM6.044,39a4.719,4.719,0,0,1,.945-.1,4.622,4.622,0,0,1,4.492,3.654l.1.477.267,1.287.273,1.271L14.27,55.9a4.591,4.591,0,0,1-3.553,5.431,4.228,4.228,0,0,1-.945.1,4.61,4.61,0,0,1-4.487-3.657L3.227,47.937l-.733-3.5c-.021-.094-.034-.195-.047-.288A4.581,4.581,0,0,1,6.044,39M23.15,36.155l1.109,5.307.25,1.19.25,1.184,1.415,6.773a5.067,5.067,0,0,1-3.923,6.007,4.794,4.794,0,0,1-1.049.114,5.092,5.092,0,0,1-4.959-4.04l-1.519-7.246-.245-1.17-.245-1.168-1.019-4.873a5.094,5.094,0,0,1,3.928-6.014,5.45,5.45,0,0,1,1.049-.1,5.089,5.089,0,0,1,4.959,4.037m4.5-24.122c.086-5.9,1.284-8.167,2.268-9.036a2.5,2.5,0,0,1,2.08-.577c.721.081,2.91.344,3.291,7.337.1,1.786.2,4.163.321,6.928,1.007,23.207,1.553,25.665,2.752,26.372a1.366,1.366,0,0,0,1.284.042,1.2,1.2,0,0,0,.655-.966c.021-.25,2.229-25.379,2.8-28.628.606-3.417,1.762-5.868,3.168-6.714a2.55,2.55,0,0,1,2.222-.175c1.211.392,1.866,2.043,2,5.038.379,8.585-.607,24.044-1.431,32.276l0,.078c-.211,6.572-.666,12.525-.875,15-2.7-.2-9.093-.169-14.011,4.037-4.172,3.579-6.222,9.256-6.095,16.862a1.193,1.193,0,0,0,1.2,1.177h.019a1.194,1.194,0,0,0,1.179-1.212c-.116-6.861,1.65-11.9,5.249-15,4.882-4.2,11.788-3.563,13.121-3.392a1.341,1.341,0,0,0,.666.133c.906-.033,1.431-.775,2.471-2.254,2.3-3.274,7.094-10.08,16.771-8.971a3.625,3.625,0,0,1,3.375,3.135c.1.821-.118,1.764-.838,2.036-5.872,2.2-13.171,7.979-14.664,13.04-3.967,13.416-7.154,16.814-9.485,19.3a12.873,12.873,0,0,0-3.54,5.71,14.322,14.322,0,0,0-.448,2.963H11.606c-.172-3.1-.587-5.745-1.271-6.945-.021-.026-.039-.062-.059-.091C6.294,83.835,4.1,74.4,3.436,59.742a7.017,7.017,0,0,0,6.335,4.079,7.159,7.159,0,0,0,1.436-.146A6.989,6.989,0,0,0,16.715,57.6a7.455,7.455,0,0,0,11.8-7.473l-1.7-8.109c.123-3.3.629-17.582.824-29.98M4.383,105.612H48.9v10.673H4.383Zm42.223-2.4H7.557V98.966H46.606Z" transform="translate(0 0)" fill="#2e1200"/>
    </g>
  </g>
</svg>
