<svg id="Grupo_56683" data-name="Grupo 56683" xmlns="http://www.w3.org/2000/svg" xmlns:xlink="http://www.w3.org/1999/xlink" width="55.895" height="118.678" viewBox="0 0 55.895 118.678">
  <defs>
    <clipPath id="clip-path">
      <rect id="Rectángulo_33947" data-name="Rectángulo 33947" width="55.895" height="118.678" fill="none"/>
    </clipPath>
  </defs>
  <path id="Trazado_101306" data-name="Trazado 101306" d="M64.656,317.413H22.111v10.673H66.636V317.413h-1.98Z" transform="translate(-14.754 -211.801)" fill="#387db8"/>
  <path id="Trazado_101307" data-name="Trazado 101307" d="M31.591,301.684H68.074v-4.247H29.029v4.247h2.561Z" transform="translate(-19.37 -198.472)" fill="#fff"/>
  <g id="Grupo_56682" data-name="Grupo 56682">
    <g id="Grupo_56681" data-name="Grupo 56681" clip-path="url(#clip-path)">
      <path id="Trazado_101308" data-name="Trazado 101308" d="M8.83,59.47a11.339,11.339,0,0,1,4.31-5.278c3.95-2.464,9.732-1.968,17.684,1.5a15.568,15.568,0,0,0,3.987,1.118l.642-12.715a.107.107,0,0,1,0-.023c.139-5.557.37-17.031.217-27.237-.09-5.9-1.284-8.167-2.272-9.036a2.5,2.5,0,0,0-2.08-.577c-2.008.24-3.519,3.459-3.77,8.021-.243,4.458-1.026,12.2-1.9,18.821-1.724,12.982-2.614,13.5-3.265,13.873a1.338,1.338,0,0,1-1.292.052,1.2,1.2,0,0,1-.653-.943c-.03-.26-2.925-26.3-3.5-29.559-.6-3.427-1.759-5.872-3.165-6.721a2.6,2.6,0,0,0-2.228-.168c-1.211.4-1.864,2.043-1.994,5.041a290.719,290.719,0,0,0,1.241,32.541,1.233,1.233,0,0,1-.024.389A99.335,99.335,0,0,0,8.83,59.47" transform="translate(-5.892 -4.798)" fill="#fabfa3"/>
      <path id="Trazado_101309" data-name="Trazado 101309" d="M17.713,194.041a7.765,7.765,0,0,1,.957,3.281H49.843c.173-3.1.591-5.745,1.276-6.945.015-.026.035-.062.055-.091,3.759-5.382,5.925-14.068,6.713-27.338a6.949,6.949,0,0,1-4.469,1.621c-.119,0-.235,0-.353-.006a6.971,6.971,0,0,1-4.649-2.108,16.454,16.454,0,0,1-15.169,4.079,18.241,18.241,0,0,1,2.459,3.91c1.881,4.04,3.2,10.89-1.16,20.584a1.2,1.2,0,0,1-1.092.7,1.242,1.242,0,0,1-.49-.1,1.2,1.2,0,0,1-.6-1.589q.069-.151.134-.311c7.309-16.61-3.321-23.811-3.433-23.888a1.189,1.189,0,0,1-.536-.9,1.43,1.43,0,0,1,.506-1.245c.684-.564,1.488-.344,2.812.026,2.9.814,8.891,2.49,15.206-3.252.1-.1.209-.2.318-.289a4.792,4.792,0,0,0,.581-.694,5.112,5.112,0,0,0,.84-2.911,4.74,4.74,0,0,0-.7-2.529c-.089-.123-.177-.233-.271-.34a1.682,1.682,0,0,0-1.167-.593,2.581,2.581,0,0,0-1.153.253,21.77,21.77,0,0,1-9.1,1.971c-.4-.006-.8-.016-1.2-.042s-.8-.072-1.194-.12a18.161,18.161,0,0,1-4.84-1.329c-7.173-3.135-12.234-3.677-15.467-1.667-3.392,2.107-5.164,7.211-5.579,16.052a1.2,1.2,0,0,1-.283.72.6.6,0,0,1-.062.065c1.04,13.024,6.136,19.887,8.829,23.506.435.571.806,1.077,1.109,1.527" transform="translate(-5.188 -100.749)" fill="#fabfa3"/>
      <path id="Trazado_101310" data-name="Trazado 101310" d="M104.373,119.351l.225-4.5.06-1.2.061-1.2.011-.217.151-2.947a5.076,5.076,0,0,0-4.815-5.32c-.086-.007-.173-.013-.258-.013a5.069,5.069,0,0,0-5.062,4.8.146.146,0,0,0,0,.023l-.162,3.242-.062,1.19-.415,8.342a19.241,19.241,0,0,0,8.013-1.754,4.788,4.788,0,0,1,2.256-.448" transform="translate(-62.793 -69.368)" fill="#fabfa3"/>
      <path id="Trazado_101311" data-name="Trazado 101311" d="M132.978,129.43a7.64,7.64,0,0,1-.05,7.966,4.586,4.586,0,0,0,7.98-2.856l.205-4.095.462-9.188.015-.337a4.467,4.467,0,0,0-.076-1.077,4.594,4.594,0,0,0-4.277-3.738c-.078,0-.157-.007-.235-.007a4.587,4.587,0,0,0-4.579,4.361l-.007.126-.062,1.229-.063,1.235-.267,5.32a4.789,4.789,0,0,1,.953,1.06" transform="translate(-88.097 -77.469)" fill="#fabfa3"/>
      <path id="Trazado_101312" data-name="Trazado 101312" d="M9.5,93.191c.412.554.769,1.041,1.037,1.436a4.8,4.8,0,0,1,.556,1.945H8.462a1.2,1.2,0,0,0-1.2,1.2v5.443H6.16a1.2,1.2,0,0,0-1.194,1.2v13.066a1.2,1.2,0,0,0,1.194,1.2H53.078a1.2,1.2,0,0,0,1.193-1.2V104.415a1.2,1.2,0,0,0-1.193-1.2H51.1V97.769a1.2,1.2,0,0,0-1.2-1.2H47.046a17.824,17.824,0,0,1,.937-5.709c4.894-7.058,7.192-18.594,7.429-37.881l.475-9.416a7,7,0,0,0-6.628-7.321,6.892,6.892,0,0,0-4.966,1.747,7.47,7.47,0,0,0-12.22-3.926c.116-6.069.217-14.421.1-22.069-.081-5.521-1.092-9.058-3.084-10.8A4.912,4.912,0,0,0,25.147.041c-3.3.4-5.556,4.328-5.881,10.261C18.916,16.767,17.5,29.24,16.28,36.269c-.9-7.956-2.457-21.609-2.879-24-.519-2.95-1.689-6.792-4.289-8.351a4.913,4.913,0,0,0-4.194-.409c-3.032.986-3.536,4.594-3.653,7.22A293.263,293.263,0,0,0,2.5,43.414c-7.105,30.817,2.776,44.09,7,49.777M4.873,43.768a1.234,1.234,0,0,0,.024-.389A290.639,290.639,0,0,1,3.656,10.837c.13-3,.783-4.646,1.994-5.041a2.6,2.6,0,0,1,2.228.168c1.406.849,2.561,3.294,3.165,6.721.576,3.262,3.472,29.3,3.5,29.559a1.2,1.2,0,0,0,.653.943,1.338,1.338,0,0,0,1.292-.052c.651-.373,1.541-.891,3.265-13.873.877-6.617,1.66-14.363,1.9-18.821.252-4.562,1.762-7.781,3.771-8.021A2.5,2.5,0,0,1,27.508,3c.987.869,2.182,3.135,2.272,9.036.153,10.206-.078,21.68-.217,27.237a.107.107,0,0,0,0,.023l-.642,12.715a15.559,15.559,0,0,1-3.987-1.119c-7.952-3.466-13.734-3.962-17.684-1.5a11.339,11.339,0,0,0-4.31,5.278,99.256,99.256,0,0,1,1.935-10.9m32.4-9.166a5.076,5.076,0,0,1,4.815,5.32l-.151,2.947-.012.217-.061,1.2-.06,1.2-.225,4.5a4.788,4.788,0,0,0-2.256.448,19.243,19.243,0,0,1-8.013,1.754l.415-8.342.062-1.19.162-3.242a.148.148,0,0,1,0-.023,5.069,5.069,0,0,1,5.062-4.8c.084,0,.172.006.258.013M49.14,38.635a4.594,4.594,0,0,1,4.277,3.738,4.467,4.467,0,0,1,.076,1.077l-.015.337-.462,9.188-.205,4.095a4.586,4.586,0,0,1-7.979,2.856,7.64,7.64,0,0,0,.049-7.966,4.788,4.788,0,0,0-.953-1.06l.267-5.32.062-1.235.062-1.229.006-.126a4.588,4.588,0,0,1,4.58-4.361c.078,0,.157.006.235.006m2.742,77.65H7.357V105.612H51.882ZM48.7,103.213H9.659V98.965H48.7Zm-35.223-6.64a7.765,7.765,0,0,0-.957-3.281c-.3-.451-.674-.957-1.109-1.527C8.723,88.146,3.628,81.283,2.587,68.259a.568.568,0,0,0,.062-.065,1.2,1.2,0,0,0,.283-.72C3.346,58.633,5.118,53.53,8.51,51.422c3.233-2.01,8.294-1.469,15.468,1.667a18.146,18.146,0,0,0,4.84,1.329c.4.049.8.091,1.194.12s.8.036,1.2.042a21.776,21.776,0,0,0,9.1-1.971,2.581,2.581,0,0,1,1.153-.253,1.683,1.683,0,0,1,1.167.593c.094.107.182.217.271.34a4.737,4.737,0,0,1,.7,2.529,5.112,5.112,0,0,1-.84,2.911,4.757,4.757,0,0,1-.581.694c-.108.091-.213.188-.318.289-6.315,5.742-12.3,4.066-15.206,3.252-1.324-.37-2.128-.59-2.812-.026a1.43,1.43,0,0,0-.506,1.245,1.189,1.189,0,0,0,.536.9c.113.078,10.742,7.279,3.433,23.888q-.064.16-.134.311a1.2,1.2,0,0,0,.6,1.589,1.242,1.242,0,0,0,.49.1,1.2,1.2,0,0,0,1.092-.7C33.72,80.586,32.4,73.735,30.516,69.7a18.254,18.254,0,0,0-2.458-3.91,16.453,16.453,0,0,0,15.169-4.079,6.972,6.972,0,0,0,4.65,2.107c.117.006.233.006.352.006A6.95,6.95,0,0,0,52.7,62.2c-.788,13.27-2.954,21.956-6.713,27.338-.02.029-.04.065-.055.091-.685,1.2-1.1,3.845-1.276,6.945Z" transform="translate(0 0)" fill="#2e1200"/>
    </g>
  </g>
</svg>
