<svg xmlns="http://www.w3.org/2000/svg" xmlns:xlink="http://www.w3.org/1999/xlink" width="190" height="198" viewBox="0 0 190 198">
  <defs>
    <clipPath id="clip-path">
      <rect id="Rect치ngulo_34059" data-name="Rect치ngulo 34059" width="98" height="90.056" fill="none"/>
    </clipPath>
  </defs>
  <g id="Grupo_80612" data-name="Grupo 80612" transform="translate(-706 -2405)">
    <rect id="Rect치ngulo_34050" data-name="Rect치ngulo 34050" width="190" height="198" rx="10" transform="translate(706 2405)" fill="#cce951"/>
    <g id="Grupo_80602" data-name="Grupo 80602" transform="translate(752 2459.001)">
      <g id="Grupo_80601" data-name="Grupo 80601" transform="translate(0 0)" clip-path="url(#clip-path)">
        <path id="Trazado_115349" data-name="Trazado 115349" d="M82.679,54.87H15.323A15.341,15.341,0,0,1,0,39.547a1.6,1.6,0,0,1,1.6-1.6H96.406a1.6,1.6,0,0,1,1.6,1.6A15.341,15.341,0,0,1,82.679,54.87M3.3,41.142A12.148,12.148,0,0,0,15.323,51.676H82.679A12.148,12.148,0,0,0,94.7,41.142Z" transform="translate(0 35.188)"/>
        <path id="Trazado_115350" data-name="Trazado 115350" d="M92.385,67.661H3a1.6,1.6,0,0,1-1.6-1.6V14.776A5.434,5.434,0,0,1,6.835,9.349H40.867a1.6,1.6,0,1,1,0,3.193H6.835A2.237,2.237,0,0,0,4.6,14.776V64.47H90.79V14.776a2.237,2.237,0,0,0-2.236-2.234H87.473a1.6,1.6,0,0,1,0-3.193h1.081a5.434,5.434,0,0,1,5.427,5.427V66.065a1.6,1.6,0,0,1-1.6,1.6" transform="translate(1.305 8.669)"/>
        <path id="Trazado_115351" data-name="Trazado 115351" d="M34.274,17.04H29.167a1.6,1.6,0,0,1,0-3.191h5.107a1.6,1.6,0,0,1,0,3.191" transform="translate(25.563 12.841)"/>
        <path id="Trazado_115352" data-name="Trazado 115352" d="M78.659,54.977H8.643a1.6,1.6,0,0,1-1.389-.809c-.208-.37-.407-.673-.576-.937a4.2,4.2,0,0,1-.908-2.342v-34.2a2.862,2.862,0,0,1,2.873-2.843h5.2a1.6,1.6,0,1,1,0,3.193H8.961V50.889c.025.033.231.353.4.609.06.091.121.187.185.285H77.759c.064-.1.125-.195.185-.285a5.326,5.326,0,0,0,.4-.686l-.01-33.77H73.533a1.6,1.6,0,0,1,0-3.193h5.126a2.862,2.862,0,0,1,2.873,2.843v34.2a4.2,4.2,0,0,1-.908,2.342c-.172.264-.368.567-.576.937a1.6,1.6,0,0,1-1.389.809" transform="translate(5.35 12.841)"/>
        <path id="Trazado_115353" data-name="Trazado 115353" d="M21.791,45.878a1.615,1.615,0,0,1-.254-.019,1.6,1.6,0,0,1-1.21-.944l-3.313-7.67-5.828-.166a1.6,1.6,0,0,1-1.549-1.6V20.426A1.593,1.593,0,0,1,10.9,18.865l28.244-5.992A1.594,1.594,0,0,1,41.066,14.3l1.673,19.875A1.6,1.6,0,0,1,41.311,35.9l-10.919,1.11-7.408,8.335a1.592,1.592,0,0,1-1.193.536M12.827,33.931l5.294.152a1.591,1.591,0,0,1,1.418.964l2.723,6.3,6.157-6.926a1.59,1.59,0,0,1,1.031-.528l9.975-1.014-1.389-16.51L12.827,21.719Z" transform="translate(8.934 11.903)"/>
        <path id="Trazado_115354" data-name="Trazado 115354" d="M20.919,21.376a2.183,2.183,0,1,1-2.183-2.183,2.183,2.183,0,0,1,2.183,2.183" transform="translate(15.346 17.796)"/>
        <path id="Trazado_115355" data-name="Trazado 115355" d="M17.52,22.019a2.183,2.183,0,1,1-2.183-2.183,2.183,2.183,0,0,1,2.183,2.183" transform="translate(12.195 18.392)"/>
        <path id="Trazado_115356" data-name="Trazado 115356" d="M24.318,20.666a2.183,2.183,0,1,1-2.183-2.183,2.183,2.183,0,0,1,2.183,2.183" transform="translate(18.498 17.138)"/>
        <path id="Trazado_115357" data-name="Trazado 115357" d="M46.668,33.041a1.6,1.6,0,0,1-1.193-.536l-7.41-8.335-10.917-1.11a1.6,1.6,0,0,1-1.43-1.723L27.392,1.463A1.6,1.6,0,0,1,29.314.035L57.556,6.026a1.6,1.6,0,0,1,1.266,1.561V22.644a1.6,1.6,0,0,1-1.551,1.6l-5.826.166-3.313,7.672a1.6,1.6,0,0,1-1.212.942,1.41,1.41,0,0,1-.252.021m-17.637-13,9.977,1.014a1.6,1.6,0,0,1,1.031.528L46.2,28.511l2.721-6.3a1.6,1.6,0,0,1,1.42-.962l5.292-.15V8.881L30.42,3.535Z" transform="translate(23.839 0.001)"/>
        <path id="Trazado_115358" data-name="Trazado 115358" d="M33.71,8.539a2.183,2.183,0,1,0,2.183-2.183A2.183,2.183,0,0,0,33.71,8.539" transform="translate(31.255 5.894)"/>
        <path id="Trazado_115359" data-name="Trazado 115359" d="M37.109,9.181A2.183,2.183,0,1,0,39.292,7a2.183,2.183,0,0,0-2.183,2.183" transform="translate(34.406 6.489)"/>
        <path id="Trazado_115360" data-name="Trazado 115360" d="M30.311,7.828a2.183,2.183,0,1,0,2.183-2.183,2.183,2.183,0,0,0-2.183,2.183" transform="translate(28.103 5.235)"/>
        <path id="Trazado_115361" data-name="Trazado 115361" d="M30.881,34.167H13.431a1.6,1.6,0,1,1,0-3.191h17.45a1.6,1.6,0,1,1,0,3.191" transform="translate(10.973 28.721)"/>
        <path id="Trazado_115362" data-name="Trazado 115362" d="M47.858,21.33H32.535a1.6,1.6,0,0,1,0-3.191H47.858a1.6,1.6,0,1,1,0,3.191" transform="translate(28.685 16.819)"/>
        <path id="Trazado_115363" data-name="Trazado 115363" d="M51.9,29.271H28.173a1.6,1.6,0,1,1,0-3.191H51.9a1.6,1.6,0,1,1,0,3.191" transform="translate(24.641 24.181)"/>
        <path id="Trazado_115364" data-name="Trazado 115364" d="M49.138,44.7H18.157a1.6,1.6,0,0,1,0-3.193H49.138a1.6,1.6,0,0,1,0,3.193" transform="translate(15.355 38.488)"/>
      </g>
    </g>
  </g>
</svg>
