<svg xmlns="http://www.w3.org/2000/svg" xmlns:xlink="http://www.w3.org/1999/xlink" width="190" height="198" viewBox="0 0 190 198">
  <defs>
    <clipPath id="clip-path">
      <rect id="Rect치ngulo_34060" data-name="Rect치ngulo 34060" width="100" height="100" transform="translate(0 0)" fill="none"/>
    </clipPath>
  </defs>
  <g id="Grupo_80613" data-name="Grupo 80613" transform="translate(-916 -2405)">
    <rect id="Rect치ngulo_34051" data-name="Rect치ngulo 34051" width="190" height="198" rx="10" transform="translate(916 2405)" fill="#cce951"/>
    <g id="Grupo_80605" data-name="Grupo 80605" transform="translate(961 2454)">
      <g id="Grupo_80604" data-name="Grupo 80604" transform="translate(0 0)" clip-path="url(#clip-path)">
        <path id="Trazado_115365" data-name="Trazado 115365" d="M30.133,34.391c-1.95,0-4.742-.9-6.91-5a15.709,15.709,0,0,1-1.734-7.331v-.245a5.962,5.962,0,0,1,3.064-5.232,12.113,12.113,0,0,1,5.779-1.562,11.567,11.567,0,0,1,6.2,2.021,5.951,5.951,0,0,1,2.712,5.018,15.719,15.719,0,0,1-1.763,7.385c-2.237,4.189-5.113,5-7.161,4.941-.059,0-.124,0-.188,0m.2-16.2a8.969,8.969,0,0,0-4.248,1.167,2.8,2.8,0,0,0-1.426,2.457v.245a12.557,12.557,0,0,0,1.364,5.848c1.188,2.243,2.618,3.364,4.3,3.309,1.761.08,3.182-1.053,4.365-3.265a12.53,12.53,0,0,0,1.389-5.892A2.788,2.788,0,0,0,34.806,19.7a8.584,8.584,0,0,0-4.474-1.512" transform="translate(19.635 13.727)"/>
        <path id="Trazado_115366" data-name="Trazado 115366" d="M22.655,37.194A1.585,1.585,0,0,1,21.07,35.61V30.652a1.585,1.585,0,1,1,3.169,0V35.61a1.584,1.584,0,0,1-1.585,1.585" transform="translate(19.252 26.558)"/>
        <path id="Trazado_115367" data-name="Trazado 115367" d="M31.114,37.194a1.584,1.584,0,0,1-1.585-1.585V30.652a1.585,1.585,0,1,1,3.169,0V35.61a1.585,1.585,0,0,1-1.585,1.585" transform="translate(26.981 26.558)"/>
        <path id="Trazado_115368" data-name="Trazado 115368" d="M52.54,41.6H17.811a1.584,1.584,0,0,1-1.585-1.585V36.748a12.592,12.592,0,0,1,10.6-12.483,1.585,1.585,0,0,1,.509,3.129,9.436,9.436,0,0,0-7.94,9.354V38.43H50.956V36.748a9.435,9.435,0,0,0-7.942-9.354,1.585,1.585,0,0,1,.509-3.129,12.592,12.592,0,0,1,10.6,12.483v3.267A1.584,1.584,0,0,1,52.54,41.6" transform="translate(14.826 22.153)"/>
        <path id="Trazado_115369" data-name="Trazado 115369" d="M39.776,68.359A28.584,28.584,0,1,1,68.361,39.774,28.618,28.618,0,0,1,39.776,68.359m0-54A25.415,25.415,0,1,0,65.19,39.774,25.443,25.443,0,0,0,39.776,14.36" transform="translate(10.225 10.225)"/>
        <path id="Trazado_115370" data-name="Trazado 115370" d="M8.116,16.23A8.115,8.115,0,1,1,16.23,8.114,8.126,8.126,0,0,1,8.116,16.23m0-13.061a4.945,4.945,0,1,0,4.945,4.945A4.95,4.95,0,0,0,8.116,3.169" transform="translate(0 -0.001)"/>
        <path id="Trazado_115371" data-name="Trazado 115371" d="M30,16.23a8.115,8.115,0,1,1,8.114-8.116A8.125,8.125,0,0,1,30,16.23M30,3.169a4.945,4.945,0,1,0,4.945,4.945A4.95,4.95,0,0,0,30,3.169" transform="translate(19.998 -0.001)"/>
        <path id="Trazado_115372" data-name="Trazado 115372" d="M51.889,16.23a8.115,8.115,0,1,1,8.116-8.116,8.125,8.125,0,0,1-8.116,8.116m0-13.061a4.945,4.945,0,1,0,4.945,4.945,4.95,4.95,0,0,0-4.945-4.945" transform="translate(39.997 -0.001)"/>
        <path id="Trazado_115373" data-name="Trazado 115373" d="M51.889,37.064a8.115,8.115,0,1,1,8.116-8.116,8.125,8.125,0,0,1-8.116,8.116m0-13.061a4.945,4.945,0,1,0,4.945,4.945A4.95,4.95,0,0,0,51.889,24" transform="translate(39.997 19.036)"/>
        <path id="Trazado_115374" data-name="Trazado 115374" d="M8.116,37.064a8.115,8.115,0,1,1,8.114-8.116,8.126,8.126,0,0,1-8.114,8.116M8.116,24a4.945,4.945,0,1,0,4.945,4.945A4.95,4.95,0,0,0,8.116,24" transform="translate(0 19.036)"/>
        <path id="Trazado_115375" data-name="Trazado 115375" d="M51.889,60.005a8.115,8.115,0,1,1,8.116-8.116,8.125,8.125,0,0,1-8.116,8.116m0-13.061a4.945,4.945,0,1,0,4.945,4.945,4.95,4.95,0,0,0-4.945-4.945" transform="translate(39.997 39.997)"/>
        <path id="Trazado_115376" data-name="Trazado 115376" d="M30,60.005a8.115,8.115,0,1,1,8.114-8.116A8.125,8.125,0,0,1,30,60.005m0-13.061a4.945,4.945,0,1,0,4.945,4.945A4.95,4.95,0,0,0,30,46.944" transform="translate(19.998 39.997)"/>
        <path id="Trazado_115377" data-name="Trazado 115377" d="M8.116,60.005a8.115,8.115,0,1,1,8.114-8.116,8.126,8.126,0,0,1-8.114,8.116m0-13.061a4.945,4.945,0,1,0,4.945,4.945,4.95,4.95,0,0,0-4.945-4.945" transform="translate(0 39.997)"/>
        <path id="Trazado_115378" data-name="Trazado 115378" d="M82.238,90.354H53.412a1.586,1.586,0,0,1-1.585-1.586,4.945,4.945,0,0,0-9.89,0,1.586,1.586,0,0,1-1.586,1.586H11.527a1.586,1.586,0,0,1-1.585-1.586A4.95,4.95,0,0,0,5,83.823a1.584,1.584,0,0,1-1.585-1.585V51.4A1.583,1.583,0,0,1,5,49.813a4.946,4.946,0,0,0,0-9.892,1.583,1.583,0,0,1-1.585-1.585V11.527A1.584,1.584,0,0,1,5,9.943,4.95,4.95,0,0,0,9.943,5a1.585,1.585,0,0,1,1.585-1.585H40.351A1.586,1.586,0,0,1,41.938,5a4.945,4.945,0,0,0,9.89,0,1.585,1.585,0,0,1,1.585-1.585H82.238A1.585,1.585,0,0,1,83.823,5a4.95,4.95,0,0,0,4.945,4.945,1.585,1.585,0,0,1,1.585,1.585V38.336a1.584,1.584,0,0,1-1.585,1.585,4.946,4.946,0,0,0,0,9.892A1.584,1.584,0,0,1,90.353,51.4V82.238a1.585,1.585,0,0,1-1.585,1.585,4.95,4.95,0,0,0-4.945,4.945,1.586,1.586,0,0,1-1.585,1.586m-27.4-3.171H80.809a8.135,8.135,0,0,1,6.375-6.375V52.827a8.116,8.116,0,0,1,0-15.92V12.957a8.135,8.135,0,0,1-6.375-6.375H54.842a8.117,8.117,0,0,1-15.92,0H12.957a8.14,8.14,0,0,1-6.375,6.375v23.95a8.117,8.117,0,0,1,0,15.92V80.809a8.14,8.14,0,0,1,6.375,6.375H38.922a8.117,8.117,0,0,1,15.92,0" transform="translate(3.118 3.118)"/>
        <path id="Trazado_115379" data-name="Trazado 115379" d="M26.885,18.35A1.584,1.584,0,0,1,25.3,16.766V8.41a1.585,1.585,0,1,1,3.169,0v8.355a1.585,1.585,0,0,1-1.585,1.585" transform="translate(23.117 6.235)"/>
        <path id="Trazado_115380" data-name="Trazado 115380" d="M49.349,27.415H40.993a1.585,1.585,0,1,1,0-3.169h8.355a1.585,1.585,0,0,1,0,3.169" transform="translate(36.006 22.153)"/>
        <path id="Trazado_115381" data-name="Trazado 115381" d="M16.842,27.415H8.41a1.585,1.585,0,1,1,0-3.169h8.432a1.585,1.585,0,1,1,0,3.169" transform="translate(6.235 22.153)"/>
        <path id="Trazado_115382" data-name="Trazado 115382" d="M19.687,21.78a1.581,1.581,0,0,1-1.121-.465l-6.348-6.348a1.585,1.585,0,0,1,2.241-2.241l6.35,6.348a1.586,1.586,0,0,1-1.121,2.706" transform="translate(10.739 11.204)"/>
        <path id="Trazado_115383" data-name="Trazado 115383" d="M12.959,15.052a1.567,1.567,0,0,1-1.12-.465L6.021,8.773A1.585,1.585,0,0,1,8.262,6.53l5.816,5.816a1.586,1.586,0,0,1-1.12,2.706" transform="translate(5.078 5.543)"/>
        <path id="Trazado_115384" data-name="Trazado 115384" d="M37.112,27.448a1.586,1.586,0,0,1-1.121-2.706L54.2,6.531a1.585,1.585,0,0,1,2.241,2.241L38.233,26.983a1.581,1.581,0,0,1-1.121.465" transform="translate(32.461 5.542)"/>
        <path id="Trazado_115385" data-name="Trazado 115385" d="M7.142,56.4A1.586,1.586,0,0,1,6.02,53.69L24.227,35.485a1.585,1.585,0,0,1,2.241,2.241L8.261,55.931a1.573,1.573,0,0,1-1.12.465" transform="translate(5.077 31.997)"/>
        <path id="Trazado_115386" data-name="Trazado 115386" d="M26.885,50.934A1.584,1.584,0,0,1,25.3,49.35V40.994a1.585,1.585,0,1,1,3.169,0V49.35a1.585,1.585,0,0,1-1.585,1.585" transform="translate(23.117 36.007)"/>
        <path id="Trazado_115387" data-name="Trazado 115387" d="M44.1,45.177a1.581,1.581,0,0,1-1.121-.465L35.99,37.721a1.585,1.585,0,0,1,2.241-2.241l6.991,6.991A1.586,1.586,0,0,1,44.1,45.177" transform="translate(32.459 31.994)"/>
        <path id="Trazado_115388" data-name="Trazado 115388" d="M49.637,50.714a1.581,1.581,0,0,1-1.121-.465l-6.306-6.3A1.585,1.585,0,1,1,44.451,41.7l6.308,6.3a1.586,1.586,0,0,1-1.121,2.706" transform="translate(38.144 37.68)"/>
      </g>
    </g>
  </g>
</svg>
