<svg id="Grupo_56680" data-name="Grupo 56680" xmlns="http://www.w3.org/2000/svg" xmlns:xlink="http://www.w3.org/1999/xlink" width="55.675" height="118.678" viewBox="0 0 55.675 118.678">
  <defs>
    <clipPath id="clip-path">
      <rect id="Rectángulo_33946" data-name="Rectángulo 33946" width="55.675" height="118.678" fill="none"/>
    </clipPath>
  </defs>
  <path id="Trazado_101298" data-name="Trazado 101298" d="M54.084,317.565H12.044v10.621H56.373V317.565H54.084Z" transform="translate(-8.037 -211.901)" fill="#387db8"/>
  <path id="Trazado_101299" data-name="Trazado 101299" d="M24.4,301.908H60.423v-4.221H21.544v4.221H24.4Z" transform="translate(-14.376 -198.637)" fill="#fff"/>
  <g id="Grupo_56679" data-name="Grupo 56679">
    <g id="Grupo_56678" data-name="Grupo 56678" clip-path="url(#clip-path)">
      <path id="Trazado_101300" data-name="Trazado 101300" d="M14.041,136.394A6.893,6.893,0,0,1,9.6,134.783c.787,13.209,2.941,21.862,6.682,27.221a.607.607,0,0,1,.057.085c.679,1.19,1.1,3.826,1.268,6.912H48.638a7.679,7.679,0,0,1,.955-3.258c.3-.451.677-.95,1.109-1.53,2.676-3.6,7.75-10.433,8.788-23.4a.539.539,0,0,1-.062-.065,1.182,1.182,0,0,1-.272-.626c-1.183-9.756-3.991-11.2-8.647-13.6-1.245-.645-2.629-1.375-4.122-2.315-.28-.178-.566-.36-.859-.561-.118-.081-.227-.162-.34-.243-.436-.308-.853-.623-1.247-.937a30.768,30.768,0,0,1-5.646-6.264c-.225-.324-.449-.639-.668-.947-.049-.068-.1-.143-.152-.214-.273-.386-.543-.772-.82-1.141a20.057,20.057,0,0,0-4.444-4.714c-.128-.088-.259-.185-.4-.269-.084-.058-.173-.123-.267-.182a2.135,2.135,0,0,0-.569-.253,1.441,1.441,0,0,0-.852.01,1.549,1.549,0,0,0-.337.142,2.068,2.068,0,0,0-.18.113,2.625,2.625,0,0,0-.454.441c-.76.947-1.211,2.717-.9,5.142.049.382.114.775.2,1.19.053.24.112.493.18.742.034.143.075.279.122.422a19.52,19.52,0,0,0,1.606,3.408c.1.182.209.363.314.548.311.528.648,1.076.992,1.653.107.169.211.334.314.516.141.211.279.441.418.674.2.3.391.629.59.947.1.165.2.324.3.486.684,1.122,1.377,2.283,2.043,3.482.331.593.655,1.2.966,1.815.238.467.468.94.694,1.423a34.758,34.758,0,0,1,1.793,4.679,1.194,1.194,0,0,1-.489,1.339c-.441.292-10.659,7.331-3.42,23.788.047.1.091.2.139.311a1.2,1.2,0,0,1-2.182.986c-4.349-9.655-3.03-16.474-1.161-20.5a17.468,17.468,0,0,1,4.576-6.024A38.309,38.309,0,0,0,33.482,130c-.182-.146-.36-.3-.529-.464a7.428,7.428,0,0,1-6.635,4.925c-.123.006-.255.01-.378.01a7.425,7.425,0,0,1-5.461-2.4,6.933,6.933,0,0,1-6.087,4.312c-.117.006-.237.01-.352.01" transform="translate(-6.404 -72.347)" fill="#fabfa3"/>
      <path id="Trazado_101301" data-name="Trazado 101301" d="M119.714,54.11a42.542,42.542,0,0,0,4.74,2.724c3.362,1.738,6.1,3.155,7.927,7.278a92.486,92.486,0,0,0-2.325-15.251,1.371,1.371,0,0,1-.031-.311c.375-11.393-.032-28-.379-35.794-.107-2.506-1.378-4.918-2.829-5.389a2.849,2.849,0,0,0-2.656.318c-1.7,1.177-2.59,4.134-2.7,6.39-.151,3.3-2.524,30.538-2.7,32.574l.357,7.039c.195.143.392.282.595.422" transform="translate(-79.246 -4.793)" fill="#fabfa3"/>
      <path id="Trazado_101302" data-name="Trazado 101302" d="M41.489,113.253l.013.214.062,1.2.058,1.2.461,9.146a5.048,5.048,0,0,0,10.083-.509l-.019-.431a8.438,8.438,0,0,1-.274-1.083c-.108-.175-.221-.354-.324-.532-1.808-2.918-3.364-5.444-4-7.665-.018-.068-.037-.129-.055-.191-.089-.337-.164-.664-.23-.979-.083-.4-.146-.8-.194-1.177-.443-3.265.274-5.593,1.373-7a5.042,5.042,0,0,0-2.054-.435c-.088,0-.17,0-.26,0a5.053,5.053,0,0,0-4.789,5.291l.147,2.941Z" transform="translate(-27.582 -70.073)" fill="#fabfa3"/>
      <path id="Trazado_101303" data-name="Trazado 101303" d="M85.181,101.867c.039.059.078.113.118.172.229.321.456.642.687.96.271.379.545.755.827,1.138a29.639,29.639,0,0,0,2.678,3.125l-.173-3.436-.059-1.193-.06-1.19-.28-5.518a5.515,5.515,0,0,0-5.51-5.243c-.094,0-.188,0-.282,0a5.538,5.538,0,0,0-5.013,3.946c.146.081.3.159.44.25,2.989,1.9,4.772,4.364,6.627,6.987" transform="translate(-52.123 -60.509)" fill="#fabfa3"/>
      <path id="Trazado_101304" data-name="Trazado 101304" d="M7.674,131.38l.206,4.075A4.565,4.565,0,1,0,17,134.988l-.089-1.793-.463-9.175-.06-1.235-.062-1.235-.007-.11v-.013a4.557,4.557,0,0,0-4.558-4.328c-.075,0-.154,0-.232,0A4.6,4.6,0,0,0,7.2,121.89l.018.334Z" transform="translate(-4.798 -78.136)" fill="#fabfa3"/>
      <path id="Trazado_101305" data-name="Trazado 101305" d="M.482,53.251c.235,19.207,2.519,30.7,7.4,37.72a17.778,17.778,0,0,1,.935,5.684H5.971a1.194,1.194,0,0,0-1.193,1.2v5.421H2.807a1.2,1.2,0,0,0-1.195,1.2v13.011a1.2,1.2,0,0,0,1.195,1.2H49.533a1.2,1.2,0,0,0,1.2-1.2V104.471a1.2,1.2,0,0,0-1.2-1.2H48.439V97.851a1.2,1.2,0,0,0-1.195-1.2h-2.62a4.8,4.8,0,0,1,.556-1.926c.266-.4.623-.879,1.036-1.433,4.208-5.664,14.055-18.9,6.963-49.615.365-11.461-.041-28.026-.384-35.823C52.657,4.777,51.075,1.2,48.3.3a5.251,5.251,0,0,0-4.75.623c-2.547,1.77-3.6,5.544-3.722,8.251-.092,2.013-1.068,13.569-1.82,22.345a7.921,7.921,0,0,0-14.4,2.2,3.432,3.432,0,0,0-.6.136A7.447,7.447,0,0,0,11.557,38.3a6.963,6.963,0,0,0-9.761.558A6.885,6.885,0,0,0,.01,43.878ZM6.73,38.966c.078,0,.157,0,.232,0a4.558,4.558,0,0,1,4.559,4.328V43.3l.006.11.062,1.235.06,1.235.464,9.175.089,1.793a4.565,4.565,0,1,1-9.119.467l-.206-4.075-.46-9.156L2.4,43.755A4.569,4.569,0,0,1,6.73,38.966m7.031,1.271a5.053,5.053,0,0,1,4.789-5.291c.089,0,.172,0,.259,0a5.04,5.04,0,0,1,2.054.435c-1.1,1.4-1.816,3.732-1.373,7,.049.38.112.772.195,1.177.067.314.141.642.23.979.018.062.037.123.055.191.634,2.221,2.19,4.747,4,7.665.1.178.216.356.324.532A8.492,8.492,0,0,0,24.565,54l.02.431A5.048,5.048,0,0,1,14.5,54.94l-.461-9.146-.058-1.2-.062-1.2-.013-.214v0ZM31.286,30.173a5.515,5.515,0,0,1,5.51,5.243l.28,5.518.06,1.19.059,1.193.173,3.437a29.636,29.636,0,0,1-2.678-3.125c-.282-.383-.556-.759-.827-1.138-.232-.318-.459-.639-.687-.96-.041-.058-.08-.113-.118-.172-1.855-2.623-3.638-5.09-6.627-6.987-.144-.091-.293-.169-.44-.25A5.537,5.537,0,0,1,31,30.176c.094,0,.188,0,.282,0m13.63-27.28a2.85,2.85,0,0,1,2.656-.318c1.451.47,2.722,2.882,2.829,5.389.347,7.791.754,24.4.379,35.794a1.372,1.372,0,0,0,.031.311A92.484,92.484,0,0,1,53.135,59.32c-1.83-4.124-4.565-5.541-7.927-7.278a42.49,42.49,0,0,1-4.74-2.724c-.2-.139-.4-.278-.595-.421l-.357-7.039c.18-2.036,2.553-29.27,2.7-32.574.105-2.256.994-5.213,2.7-6.39M4.008,105.664H48.337v10.621H4.008Zm42.04-2.393H7.169V99.05H46.048Zm-3.813-6.617H11.2c-.172-3.087-.589-5.723-1.268-6.912a.583.583,0,0,0-.057-.084C6.135,84.3,3.98,75.645,3.194,62.436a6.894,6.894,0,0,0,4.444,1.611c.115,0,.235,0,.352-.01a6.934,6.934,0,0,0,6.087-4.312,7.426,7.426,0,0,0,5.461,2.4c.123,0,.255,0,.378-.01a7.429,7.429,0,0,0,6.635-4.925c.169.165.347.318.529.463a38.282,38.282,0,0,1,2.767,6.215A17.473,17.473,0,0,0,25.27,69.89c-1.869,4.03-3.189,10.849,1.161,20.5a1.2,1.2,0,0,0,2.182-.986c-.049-.107-.092-.211-.14-.311-7.238-16.457,2.98-23.5,3.421-23.788a1.194,1.194,0,0,0,.489-1.339,34.743,34.743,0,0,0-1.793-4.679q-.338-.725-.693-1.423c-.311-.616-.636-1.222-.967-1.816-.666-1.2-1.358-2.36-2.042-3.482-.1-.162-.2-.321-.3-.486-.2-.318-.394-.642-.59-.947-.139-.234-.277-.464-.418-.674-.1-.181-.208-.347-.314-.515-.344-.577-.681-1.125-.992-1.654l-.314-.548a19.562,19.562,0,0,1-1.607-3.408c-.047-.142-.088-.278-.121-.421-.068-.25-.126-.5-.18-.742-.086-.415-.151-.808-.2-1.19-.311-2.425.139-4.2.9-5.142A2.649,2.649,0,0,1,23.2,36.4a2.045,2.045,0,0,1,.18-.113,1.538,1.538,0,0,1,.337-.143,1.44,1.44,0,0,1,.853-.01,2.123,2.123,0,0,1,.569.253c.094.058.183.123.268.181.136.085.268.182.4.269a20.071,20.071,0,0,1,4.444,4.714c.277.37.548.756.82,1.141.052.072.1.146.152.214.219.308.443.623.668.947a30.767,30.767,0,0,0,5.646,6.264c.394.314.811.629,1.246.937.113.081.222.162.34.243.293.2.579.383.859.561,1.493.94,2.877,1.67,4.123,2.315,4.656,2.4,7.463,3.845,8.647,13.6a1.184,1.184,0,0,0,.273.626.54.54,0,0,0,.062.065c-1.037,12.966-6.112,19.8-8.788,23.4-.431.58-.806,1.08-1.109,1.53a7.671,7.671,0,0,0-.955,3.258" transform="translate(0 0)" fill="#2e1200"/>
    </g>
  </g>
</svg>
