<svg xmlns="http://www.w3.org/2000/svg" xmlns:xlink="http://www.w3.org/1999/xlink" width="190" height="198" viewBox="0 0 190 198">
  <defs>
    <clipPath id="clip-path">
      <rect id="Rect치ngulo_34061" data-name="Rect치ngulo 34061" width="104.617" height="83.437" fill="none"/>
    </clipPath>
  </defs>
  <g id="Grupo_80610" data-name="Grupo 80610" transform="translate(-285 -2404)">
    <rect id="Rect치ngulo_34048" data-name="Rect치ngulo 34048" width="190" height="198" rx="10" transform="translate(285 2404)" fill="#cce951"/>
    <g id="Grupo_80607" data-name="Grupo 80607" transform="translate(328 2461)">
      <g id="Grupo_80606" data-name="Grupo 80606" transform="translate(0 0)" clip-path="url(#clip-path)">
        <path id="Trazado_115389" data-name="Trazado 115389" d="M20.439,64.778A1.679,1.679,0,0,1,18.761,63.1V52.409a1.678,1.678,0,0,1,1.678-1.678h6.812l-.022-25.157a4.052,4.052,0,0,0-4.048-4.045H16.742a1.678,1.678,0,1,1,0-3.356h6.439a7.411,7.411,0,0,1,7.4,7.4V50.753a3.338,3.338,0,0,1-3.334,3.334H22.117V63.1a1.678,1.678,0,0,1-1.678,1.678" transform="translate(15.468 18.659)"/>
        <path id="Trazado_115390" data-name="Trazado 115390" d="M10.146,64.778A1.679,1.679,0,0,1,8.468,63.1V54.087H3.334A3.338,3.338,0,0,1,0,50.753V25.574a7.411,7.411,0,0,1,7.4-7.4h6.439a1.678,1.678,0,1,1,0,3.356H7.4a4.05,4.05,0,0,0-4.045,4.045V50.753l6.788-.022a1.676,1.676,0,0,1,1.678,1.678V63.1a1.678,1.678,0,0,1-1.678,1.678" transform="translate(0 18.659)"/>
        <path id="Trazado_115391" data-name="Trazado 115391" d="M5.856,47.683A1.679,1.679,0,0,1,4.178,46V26.087a1.678,1.678,0,0,1,3.356,0V46a1.678,1.678,0,0,1-1.678,1.678" transform="translate(4.29 25.063)"/>
        <path id="Trazado_115392" data-name="Trazado 115392" d="M18.566,47.683A1.679,1.679,0,0,1,16.888,46V26.087a1.678,1.678,0,0,1,3.356,0V46a1.678,1.678,0,0,1-1.678,1.678" transform="translate(17.341 25.063)"/>
        <path id="Trazado_115393" data-name="Trazado 115393" d="M16.864,24.735A10.862,10.862,0,1,1,27.725,13.872,10.874,10.874,0,0,1,16.864,24.735m0-18.367a7.5,7.5,0,1,0,7.5,7.5,7.513,7.513,0,0,0-7.5-7.5" transform="translate(6.163 3.093)"/>
        <path id="Trazado_115394" data-name="Trazado 115394" d="M14.628,46.23a1.675,1.675,0,0,1-1.086-.4L8.77,41.777a1.683,1.683,0,0,1-.584-1.435L9.766,23.169a1.679,1.679,0,1,1,3.344.308l-1.5,16.306,3.018,2.566,3.014-2.562-1.613-16.3a1.678,1.678,0,1,1,3.34-.33l1.7,17.173a1.68,1.68,0,0,1-.584,1.445l-4.771,4.054a1.675,1.675,0,0,1-1.086.4" transform="translate(8.399 22.223)"/>
        <path id="Trazado_115395" data-name="Trazado 115395" d="M39.042,64.778a1.679,1.679,0,0,1-1.68-1.678V54.087H32.23A3.337,3.337,0,0,1,28.9,50.753V25.574a7.411,7.411,0,0,1,7.4-7.4h6.437a1.678,1.678,0,1,1,0,3.356H36.3a4.052,4.052,0,0,0-4.048,4.045V50.753l6.79-.022a1.676,1.676,0,0,1,1.676,1.678V63.1a1.677,1.677,0,0,1-1.676,1.678" transform="translate(29.67 18.659)"/>
        <path id="Trazado_115396" data-name="Trazado 115396" d="M49.334,64.778A1.679,1.679,0,0,1,47.656,63.1V52.409a1.678,1.678,0,0,1,1.678-1.678h6.812l-.024-25.157a4.05,4.05,0,0,0-4.045-4.045H45.637a1.678,1.678,0,0,1,0-3.356h6.439a7.411,7.411,0,0,1,7.4,7.4V50.753a3.338,3.338,0,0,1-3.334,3.334H51.012V63.1a1.679,1.679,0,0,1-1.678,1.678" transform="translate(45.137 18.659)"/>
        <path id="Trazado_115397" data-name="Trazado 115397" d="M47.461,47.683A1.679,1.679,0,0,1,45.783,46V26.087a1.678,1.678,0,1,1,3.356,0V46a1.679,1.679,0,0,1-1.678,1.678" transform="translate(47.01 25.063)"/>
        <path id="Trazado_115398" data-name="Trazado 115398" d="M34.753,47.683A1.679,1.679,0,0,1,33.073,46V26.087a1.678,1.678,0,0,1,3.356,0V46a1.677,1.677,0,0,1-1.676,1.678" transform="translate(33.959 25.063)"/>
        <path id="Trazado_115399" data-name="Trazado 115399" d="M45.761,24.735A10.862,10.862,0,1,1,56.62,13.872a10.875,10.875,0,0,1-10.86,10.864m0-18.367a7.5,7.5,0,1,0,7.5,7.5,7.513,7.513,0,0,0-7.5-7.5" transform="translate(35.832 3.093)"/>
        <path id="Trazado_115400" data-name="Trazado 115400" d="M79.037,33.932a17.654,17.654,0,0,1-7.882-1.855L55.263,24.441a1.678,1.678,0,0,1,1.455-3.024l15.912,7.647A14.409,14.409,0,0,0,86.16,28.7a13.17,13.17,0,0,0,6.82-10.5c.032-.405.049-.817.049-1.23s-.016-.825-.049-1.23a13.17,13.17,0,0,0-6.82-10.5A14.39,14.39,0,0,0,72.653,4.86L51.015,17.475,28.076,31.995a1.319,1.319,0,0,1-.148.083,17.751,17.751,0,0,1-16.654-.458A16.473,16.473,0,0,1,2.757,18.468q-.061-.742-.061-1.5t.061-1.5a16.472,16.472,0,0,1,8.517-13.15,17.745,17.745,0,0,1,16.654-.458l15.14,7.54a1.679,1.679,0,0,1-1.5,3.006L26.43,4.86a14.384,14.384,0,0,0-13.507.375,13.17,13.17,0,0,0-6.82,10.5c-.032.405-.049.817-.049,1.23s.016.825.049,1.23a13.17,13.17,0,0,0,6.82,10.5,14.4,14.4,0,0,0,13.434.413l22.915-14.5,21.786-12.7a17.781,17.781,0,0,1,16.751.405,16.473,16.473,0,0,1,8.517,13.152q.061.742.061,1.5t-.061,1.5a16.472,16.472,0,0,1-8.517,13.15,17.832,17.832,0,0,1-8.772,2.313" transform="translate(2.768 0)"/>
        <path id="Trazado_115401" data-name="Trazado 115401" d="M43.525,46.229a1.676,1.676,0,0,1-1.088-.4l-4.771-4.054a1.691,1.691,0,0,1-.584-1.445l1.7-17.173a1.678,1.678,0,1,1,3.34.33l-1.613,16.3,3.016,2.562,3.018-2.566-1.5-16.306a1.679,1.679,0,1,1,3.344-.308l1.579,17.173a1.677,1.677,0,0,1-.584,1.435L44.609,45.83a1.669,1.669,0,0,1-1.084.4" transform="translate(38.068 22.224)"/>
      </g>
    </g>
  </g>
</svg>
