<svg xmlns="http://www.w3.org/2000/svg" xmlns:xlink="http://www.w3.org/1999/xlink" width="190" height="198" viewBox="0 0 190 198">
  <defs>
    <clipPath id="clip-path">
      <rect id="Rect치ngulo_34058" data-name="Rect치ngulo 34058" width="90" height="105.768" fill="none"/>
    </clipPath>
  </defs>
  <g id="Grupo_80611" data-name="Grupo 80611" transform="translate(-495 -2406)">
    <rect id="Rect치ngulo_34049" data-name="Rect치ngulo 34049" width="190" height="198" rx="10" transform="translate(495 2406)" fill="#cce951"/>
    <g id="Grupo_80600" data-name="Grupo 80600" transform="translate(545 2452)">
      <g id="Grupo_80599" data-name="Grupo 80599" transform="translate(0 0)" clip-path="url(#clip-path)">
        <path id="Trazado_115333" data-name="Trazado 115333" d="M14.719,27.075a1.7,1.7,0,0,1-1.7-1.7V20.6a1.7,1.7,0,0,1,3.4,0v4.77a1.7,1.7,0,0,1-1.7,1.7" transform="translate(13.733 19.941)"/>
        <path id="Trazado_115334" data-name="Trazado 115334" d="M22.3,27.075a1.7,1.7,0,0,1-1.7-1.7V20.6a1.7,1.7,0,0,1,3.4,0v4.77a1.7,1.7,0,0,1-1.7,1.7" transform="translate(21.728 19.941)"/>
        <path id="Trazado_115335" data-name="Trazado 115335" d="M43.794,31.633H10.378a1.7,1.7,0,0,1-1.7-1.7V26.789A12.292,12.292,0,0,1,19.025,14.605a1.7,1.7,0,1,1,.547,3.358,8.9,8.9,0,0,0-7.49,8.826V28.23H42.092V26.789A8.9,8.9,0,0,0,34.6,17.963a1.7,1.7,0,1,1,.547-3.358A12.289,12.289,0,0,1,45.5,26.789v3.142a1.7,1.7,0,0,1-1.7,1.7" transform="translate(9.153 15.383)"/>
        <path id="Trazado_115336" data-name="Trazado 115336" d="M29.477,58.607a1.264,1.264,0,0,1-.175-.01,28.357,28.357,0,1,1,29.01-17.1,1.7,1.7,0,0,1-3.13-1.338A24.977,24.977,0,1,0,29.648,55.212a1.7,1.7,0,0,1-.171,3.395" transform="translate(4.035 2.099)"/>
        <path id="Trazado_115337" data-name="Trazado 115337" d="M40.714,17.51a1.7,1.7,0,0,1-1.492-.88A32.808,32.808,0,0,0,25.36,3.218,1.7,1.7,0,0,1,26.907.187a36.206,36.206,0,0,1,15.3,14.8,1.7,1.7,0,0,1-.666,2.312,1.681,1.681,0,0,1-.822.214" transform="translate(25.775 0)"/>
        <path id="Trazado_115338" data-name="Trazado 115338" d="M5.218,43.346a1.7,1.7,0,0,1-1.529-.951,36.283,36.283,0,0,1,2.3-35.907A1.7,1.7,0,1,1,8.826,8.364a32.893,32.893,0,0,0-2.082,32.53,1.7,1.7,0,0,1-.779,2.277,1.683,1.683,0,0,1-.748.175" transform="translate(0 6.04)"/>
        <path id="Trazado_115339" data-name="Trazado 115339" d="M22.509,24.712A9.493,9.493,0,1,1,32,15.218a9.5,9.5,0,0,1-9.494,9.494m0-15.583A6.09,6.09,0,1,0,28.6,15.218a6.1,6.1,0,0,0-6.089-6.089" transform="translate(13.731 6.041)"/>
        <path id="Trazado_115340" data-name="Trazado 115340" d="M27.071,48.935a1.7,1.7,0,0,1-1.7-1.7v-4.77a1.7,1.7,0,1,1,3.4,0v4.77a1.7,1.7,0,0,1-1.7,1.7" transform="translate(26.764 43.003)"/>
        <path id="Trazado_115341" data-name="Trazado 115341" d="M34.65,48.935a1.7,1.7,0,0,1-1.7-1.7v-4.77a1.7,1.7,0,1,1,3.4,0v4.77a1.7,1.7,0,0,1-1.7,1.7" transform="translate(34.76 43.003)"/>
        <path id="Trazado_115342" data-name="Trazado 115342" d="M56.146,53.493H22.732a1.7,1.7,0,0,1-1.7-1.7V48.649A12.289,12.289,0,0,1,31.377,36.465a1.7,1.7,0,0,1,.547,3.358,8.9,8.9,0,0,0-7.49,8.826V50.09H54.444V48.649a8.9,8.9,0,0,0-7.492-8.826,1.7,1.7,0,0,1,.547-3.358A12.289,12.289,0,0,1,57.847,48.649v3.142a1.7,1.7,0,0,1-1.7,1.7" transform="translate(22.184 38.445)"/>
        <path id="Trazado_115343" data-name="Trazado 115343" d="M44.555,80.606A28.377,28.377,0,1,1,72.932,52.228,28.41,28.41,0,0,1,44.555,80.606m0-53.351A24.974,24.974,0,1,0,69.529,52.228,25,25,0,0,0,44.555,27.254" transform="translate(17.067 25.162)"/>
        <path id="Trazado_115344" data-name="Trazado 115344" d="M13.979,51.214a1.7,1.7,0,0,1-1.685-1.478,37.549,37.549,0,0,1-.329-4.948,36.933,36.933,0,0,1,2.26-12.768,1.7,1.7,0,1,1,3.2,1.173A33.529,33.529,0,0,0,15.37,44.788a34.319,34.319,0,0,0,.3,4.5A1.7,1.7,0,0,1,14.2,51.2a2.119,2.119,0,0,1-.226.014" transform="translate(12.623 32.603)"/>
        <path id="Trazado_115345" data-name="Trazado 115345" d="M46.883,28.4a1.7,1.7,0,0,1-.921-.271,33.308,33.308,0,0,0-12.443-4.862,1.7,1.7,0,1,1,.58-3.352A36.669,36.669,0,0,1,47.807,25.27a1.7,1.7,0,0,1-.925,3.132" transform="translate(33.87 20.983)"/>
        <path id="Trazado_115346" data-name="Trazado 115346" d="M34.861,46.572a9.493,9.493,0,1,1,9.494-9.494,9.5,9.5,0,0,1-9.494,9.494m0-15.583a6.09,6.09,0,1,0,6.091,6.089,6.1,6.1,0,0,0-6.091-6.089" transform="translate(26.762 29.103)"/>
        <path id="Trazado_115347" data-name="Trazado 115347" d="M23.048,62.347H5.528a1.7,1.7,0,0,1-1.7-1.7V27.6a1.7,1.7,0,0,1,3.4,0V58.944H23.048a1.7,1.7,0,0,1,0,3.4" transform="translate(4.036 27.326)"/>
        <path id="Trazado_115348" data-name="Trazado 115348" d="M52.836,46.233a1.7,1.7,0,0,1-1.7-1.7V13.193H35.316a1.7,1.7,0,0,1,0-3.405H52.836a1.7,1.7,0,0,1,1.7,1.7V44.532a1.7,1.7,0,0,1-1.7,1.7" transform="translate(35.462 10.326)"/>
      </g>
    </g>
  </g>
</svg>
