<svg xmlns="http://www.w3.org/2000/svg" xmlns:xlink="http://www.w3.org/1999/xlink" width="190" height="198" viewBox="0 0 190 198">
  <defs>
    <clipPath id="clip-path">
      <rect id="Rect치ngulo_34057" data-name="Rect치ngulo 34057" width="108.32" height="106.754" fill="none"/>
    </clipPath>
  </defs>
  <g id="Grupo_80614" data-name="Grupo 80614" transform="translate(-1126 -2405)">
    <rect id="Rect치ngulo_34054" data-name="Rect치ngulo 34054" width="190" height="198" rx="10" transform="translate(1126 2405)" fill="#cce951"/>
    <g id="Grupo_80603" data-name="Grupo 80603" transform="translate(1167 2451)">
      <g id="Grupo_80597" data-name="Grupo 80597" transform="translate(0 0)" clip-path="url(#clip-path)">
        <path id="Trazado_115314" data-name="Trazado 115314" d="M15.748,69.232a1.818,1.818,0,0,1-1.819-1.819V58.951a1.818,1.818,0,0,1,1.819-1.819h4.88v-19.7A2.434,2.434,0,0,0,18.2,35H12.821a1.819,1.819,0,1,1,0-3.637H18.2a6.076,6.076,0,0,1,6.07,6.068V58.951a1.82,1.82,0,0,1-1.821,1.821H17.564v6.642a1.817,1.817,0,0,1-1.816,1.819" transform="translate(13.161 37.523)"/>
        <path id="Trazado_115315" data-name="Trazado 115315" d="M8.522,69.232A1.819,1.819,0,0,1,6.7,67.413V60.772H1.821A1.82,1.82,0,0,1,0,58.951V37.434a6.076,6.076,0,0,1,6.07-6.068h5.376a1.819,1.819,0,1,1,0,3.637H6.07a2.435,2.435,0,0,0-2.431,2.431v19.7H8.522a1.819,1.819,0,0,1,1.819,1.819v8.462a1.819,1.819,0,0,1-1.819,1.819" transform="translate(0 37.523)"/>
        <path id="Trazado_115316" data-name="Trazado 115316" d="M4.871,55.321A1.819,1.819,0,0,1,3.052,53.5V37.74a1.819,1.819,0,1,1,3.637,0V53.5a1.819,1.819,0,0,1-1.819,1.819" transform="translate(3.651 42.972)"/>
        <path id="Trazado_115317" data-name="Trazado 115317" d="M14.154,55.321A1.818,1.818,0,0,1,12.335,53.5V37.74a1.817,1.817,0,1,1,3.635,0V53.5a1.817,1.817,0,0,1-1.816,1.819" transform="translate(14.756 42.972)"/>
        <path id="Trazado_115318" data-name="Trazado 115318" d="M13.7,41.058a9.511,9.511,0,1,1,9.512-9.512A9.523,9.523,0,0,1,13.7,41.058m0-15.385a5.873,5.873,0,1,0,5.873,5.873A5.879,5.879,0,0,0,13.7,25.673" transform="translate(5.012 26.362)"/>
        <path id="Trazado_115319" data-name="Trazado 115319" d="M48.026,63.226a1.819,1.819,0,0,1-1.819-1.819V52.945a1.818,1.818,0,0,1,1.819-1.819h4.882v-19.7A2.435,2.435,0,0,0,50.477,29H45.1a1.819,1.819,0,1,1,0-3.637h5.379a6.074,6.074,0,0,1,6.068,6.068V52.945a1.818,1.818,0,0,1-1.819,1.819H49.845v6.644a1.818,1.818,0,0,1-1.819,1.819" transform="translate(51.775 30.338)"/>
        <path id="Trazado_115320" data-name="Trazado 115320" d="M40.8,63.226a1.819,1.819,0,0,1-1.819-1.819V54.764H34.1a1.818,1.818,0,0,1-1.819-1.819V31.428a6.074,6.074,0,0,1,6.068-6.068h5.379a1.819,1.819,0,1,1,0,3.637H38.347a2.435,2.435,0,0,0-2.431,2.431v19.7H40.8a1.818,1.818,0,0,1,1.819,1.819v8.462A1.819,1.819,0,0,1,40.8,63.226" transform="translate(38.614 30.338)"/>
        <path id="Trazado_115321" data-name="Trazado 115321" d="M37.149,49.316A1.819,1.819,0,0,1,35.33,47.5V31.735a1.819,1.819,0,1,1,3.637,0V47.5a1.819,1.819,0,0,1-1.819,1.819" transform="translate(42.264 35.788)"/>
        <path id="Trazado_115322" data-name="Trazado 115322" d="M46.432,49.316A1.819,1.819,0,0,1,44.613,47.5V31.735a1.819,1.819,0,1,1,3.637,0V47.5a1.818,1.818,0,0,1-1.819,1.819" transform="translate(53.369 35.788)"/>
        <path id="Trazado_115323" data-name="Trazado 115323" d="M45.98,35.052a9.511,9.511,0,1,1,9.512-9.512,9.523,9.523,0,0,1-9.512,9.512m0-15.385a5.873,5.873,0,1,0,5.873,5.873,5.879,5.879,0,0,0-5.873-5.873" transform="translate(43.626 19.177)"/>
        <path id="Trazado_115324" data-name="Trazado 115324" d="M22.332,47.031a1.8,1.8,0,0,1-.593-.1,1.817,1.817,0,0,1-1.226-1.72V37.237H12.258a1.818,1.818,0,0,1-1.821-1.819V14.939a1.817,1.817,0,0,1,1.425-1.775l32.044-7.1A1.819,1.819,0,0,1,46.12,7.849l-.167,23.313A1.817,1.817,0,0,1,44.631,32.9l-13.3,3.778-7.564,9.657a1.819,1.819,0,0,1-1.432.7M14.076,33.6h8.256a1.818,1.818,0,0,1,1.819,1.819v4.522l4.678-5.974a1.817,1.817,0,0,1,.936-.628l12.563-3.567.138-19.665L14.076,16.4Z" transform="translate(12.485 7.198)"/>
        <path id="Trazado_115325" data-name="Trazado 115325" d="M45.655,41.015a1.814,1.814,0,0,1-1.432-.7l-7.562-9.655-2.442-.694a1.819,1.819,0,0,1,.993-3.5l3.011.857a1.818,1.818,0,0,1,.936.628l4.678,5.972V29.4a1.818,1.818,0,0,1,1.819-1.819H53.91v-17.2L25.524,4.091l.042,5.976a1.82,1.82,0,1,1-3.639.024l-.057-8.258A1.819,1.819,0,0,1,24.081.044l32.044,7.1A1.818,1.818,0,0,1,57.55,8.921V29.4a1.818,1.818,0,0,1-1.819,1.819H47.473V39.2a1.821,1.821,0,0,1-1.226,1.72,1.846,1.846,0,0,1-.593.1" transform="translate(26.161 0.001)"/>
        <path id="Trazado_115326" data-name="Trazado 115326" d="M19.513,15.945a2.832,2.832,0,1,1-2.833-2.831,2.831,2.831,0,0,1,2.833,2.831" transform="translate(16.567 15.689)"/>
        <path id="Trazado_115327" data-name="Trazado 115327" d="M23.16,15.231A2.832,2.832,0,1,1,20.327,12.4a2.831,2.831,0,0,1,2.833,2.833" transform="translate(20.93 14.832)"/>
        <path id="Trazado_115328" data-name="Trazado 115328" d="M26.808,14.517a2.832,2.832,0,1,1-2.833-2.833,2.831,2.831,0,0,1,2.833,2.833" transform="translate(25.294 13.978)"/>
        <path id="Trazado_115329" data-name="Trazado 115329" d="M31.823,9.994a2.832,2.832,0,1,0,2.833-2.833,2.831,2.831,0,0,0-2.833,2.833" transform="translate(38.069 8.567)"/>
        <path id="Trazado_115330" data-name="Trazado 115330" d="M28.176,9.279a2.831,2.831,0,1,0,2.831-2.833,2.831,2.831,0,0,0-2.831,2.833" transform="translate(33.706 7.712)"/>
        <path id="Trazado_115331" data-name="Trazado 115331" d="M49.334,50.588H3.011a1.819,1.819,0,1,1,0-3.637H49.334a1.819,1.819,0,1,1,0,3.637" transform="translate(1.426 56.167)"/>
        <path id="Trazado_115332" data-name="Trazado 115332" d="M71.933,44.582H28.52a1.819,1.819,0,0,1,0-3.637H71.933a1.819,1.819,0,1,1,0,3.637" transform="translate(31.942 48.982)"/>
      </g>
    </g>
  </g>
</svg>
